<?xml version="1.0" encoding="UTF-8" standalone="no"?>
<svg
   version="1.1"
   width="291.5387"
   height="65.003113"
   id="svg20"
   sodipodi:docname="intelie.svg"
   inkscape:version="1.4.2 (ebf0e940d0, 2025-05-08)"
   xmlns:inkscape="http://www.inkscape.org/namespaces/inkscape"
   xmlns:sodipodi="http://sodipodi.sourceforge.net/DTD/sodipodi-0.dtd"
   xmlns="http://www.w3.org/2000/svg"
   xmlns:svg="http://www.w3.org/2000/svg">
  <defs
     id="defs20" />
  <sodipodi:namedview
     id="namedview20"
     pagecolor="#ffffff"
     bordercolor="#000000"
     borderopacity="0.25"
     inkscape:showpageshadow="2"
     inkscape:pageopacity="0.0"
     inkscape:pagecheckerboard="0"
     inkscape:deskcolor="#d1d1d1"
     inkscape:zoom="1.1818485"
     inkscape:cx="63.882977"
     inkscape:cy="108.30491"
     inkscape:window-width="964"
     inkscape:window-height="1104"
     inkscape:window-x="0"
     inkscape:window-y="0"
     inkscape:window-maximized="0"
     inkscape:current-layer="svg20" />
  <path
     d="m 216,23.001129 c 10.56,0 21.12,0 32,0 0,1.65 0,3.3 0,5 -8.91,0 -17.82,0 -27,0 0,2.64 0,5.28 0,8 7.59,0 15.18,0 23,0 0,1.65 0,3.3 0,5 -7.59,0 -15.18,0 -23,0 0,2.97 0,5.94 0,9 8.91,0 17.82,0 27,0 0,1.65 0,3.3 0,5 -10.56,0 -21.12,0 -32,0 0,-10.56 0,-21.12 0,-32 z"
     fill="#65676c"
     id="path2" />
  <path
     d="m 120,23.001129 c 10.23,0 20.46,0 31,0 0,1.65 0,3.3 0,5 -8.58,0 -17.16,0 -26,0 0,2.64 0,5.28 0,8 7.26,0 14.52,0 22,0 0,1.65 0,3.3 0,5 -7.26,0 -14.52,0 -22,0 0,2.97 0,5.94 0,9 8.58,0 17.16,0 26,0 0,1.65 0,3.3 0,5 -10.23,0 -20.46,0 -31,0 0,-10.56 0,-21.12 0,-32 z"
     fill="#65676c"
     id="path3" />
  <path
     d="m 29,22.001129 c 7.865409,4.494519 7.865409,4.494519 10.613281,6.769531 0.603845,0.493389 1.207691,0.986778 1.829834,1.495117 0.616897,0.510792 1.233794,1.021583 1.869385,1.547852 5.73053,4.67117 11.560413,9.039934 17.6875,13.1875 0,-7.26 0,-14.52 0,-22 1.65,0 3.3,0 5,0 0,10.89 0,21.78 0,33 -10.023121,-6.682081 -10.023121,-6.682081 -14.375,-10.375 -5.368648,-4.472608 -10.939488,-8.56392 -16.625,-12.625 -0.33,7.26 -0.66,14.52 -1,22 -1.65,0 -3.3,0 -5,0 0,-10.89 0,-21.78 0,-33 z"
     fill="#63656a"
     id="path4" />
  <path
     d="m 74,23.001129 c 12.21,0 24.42,0 37,0 0,1.65 0,3.3 0,5 -4.95,0 -9.9,0 -15,0 0,8.91 0,17.82 0,27 -1.98,0 -3.96,0 -6,0 0,-8.91 0,-17.82 0,-27 -5.28,0 -10.56,0 -16,0 0,-1.65 0,-3.3 0,-5 z"
     fill="#63656a"
     id="path5" />
  <path
     d="m 162,23.001129 c 1.65,0 3.3,0 5,0 0,8.91 0,17.82 0,27 8.58,0 17.16,0 26,0 0,1.65 0,3.3 0,5 -10.23,0 -20.46,0 -31,0 0,-10.56 0,-21.12 0,-32 z"
     fill="#63656a"
     id="path6" />
  <path
     d="m 201,23.001129 c 1.65,0 3.3,0 5,0 0,10.56 0,21.12 0,32 -1.65,0 -3.3,0 -5,0 0,-10.56 0,-21.12 0,-32 z"
     fill="#63656a"
     id="path7" />
  <path
     d="m 14,23.001129 c 1.65,0 3.3,0 5,0 0,10.56 0,21.12 0,32 -1.65,0 -3.3,0 -5,0 0,-10.56 0,-21.12 0,-32 z"
     fill="#63656a"
     id="path8" />
  <path
     d="m 269,28.001129 c 1.65,0 3.3,0 5,0 0,8.91 0,17.82 0,27 -1.65,0 -3.3,0 -5,0 0,-8.91 0,-17.82 0,-27 z"
     fill="#53b6b2"
     id="path9" />
  <path
     d="m 279,34.001129 c 1.65,0 3.3,0 5,0 0,6.93 0,13.86 0,21 -1.65,0 -3.3,0 -5,0 0,-6.93 0,-13.86 0,-21 z"
     fill="#63656a"
     id="path10" />
  <path
     d="m 258,41.001129 c 1.65,0 3.3,0 5,0 0,4.62 0,9.24 0,14 -1.65,0 -3.3,0 -5,0 0,-4.62 0,-9.24 0,-14 z"
     fill="#63656a"
     id="path12" />
</svg>
