<?xml version="1.0" encoding="UTF-8"?>
<svg version="1.1" xmlns="http://www.w3.org/2000/svg" width="130" height="178">
<path d="M0 0 C0.93207275 0.4110498 1.86414551 0.82209961 2.82446289 1.24560547 C4.38547729 1.9316687 4.38547729 1.9316687 5.97802734 2.6315918 C7.07332764 3.12038818 8.16862793 3.60918457 9.29711914 4.11279297 C10.42142334 4.61125732 11.54572754 5.10972168 12.70410156 5.62329102 C20.7111066 9.19589609 28.57189169 12.95862124 36.35961914 16.98779297 C38.6497519 18.136689 40.94136031 19.28264952 43.23461914 20.42529297 C44.94295247 21.27945964 46.65128581 22.1336263 48.35961914 22.98779297 C46.27703961 25.25553531 44.39922249 26.63597766 41.61352539 27.93310547 C40.4956665 28.45868042 40.4956665 28.45868042 39.35522461 28.99487305 C38.5522998 29.36378662 37.749375 29.7327002 36.92211914 30.11279297 C36.08825684 30.50168701 35.25439453 30.89058105 34.39526367 31.29125977 C22.11366823 36.99678363 9.73628689 42.49258198 -2.64038086 47.98779297 C1.6340248 50.72476418 6.09430584 52.72309526 10.73461914 54.73779297 C17.68067281 57.78810544 24.57793091 60.92090508 31.44165039 64.15185547 C37.06928147 66.78893085 42.71678501 69.38340799 48.35961914 71.98779297 C48.35961914 89.14779297 48.35961914 106.30779297 48.35961914 123.98779297 C32.72458264 131.80531122 32.72458264 131.80531122 26.42211914 134.48779297 C21.03095716 136.80766245 15.67744404 139.1916384 10.35961914 141.67529297 C9.734021 141.96597656 9.10842285 142.25666016 8.46386719 142.55615234 C5.16056216 144.1022857 1.93635331 145.74302772 -1.26538086 147.48779297 C-5.51317291 149.37570054 -7.58449487 148.76873052 -11.82177734 147.15917969 C-12.54437744 146.83191895 -13.26697754 146.5046582 -14.01147461 146.16748047 C-14.82583984 145.80058105 -15.64020508 145.43368164 -16.47924805 145.05566406 C-17.33679687 144.6620166 -18.1943457 144.26836914 -19.07788086 143.86279297 C-19.97023437 143.45754395 -20.86258789 143.05229492 -21.78198242 142.63476562 C-27.99074687 139.79624989 -34.09238338 136.79680836 -40.16772461 133.68310547 C-42.77069009 132.41236641 -45.35517856 131.23261487 -48.01928711 130.10498047 C-48.75695313 129.79254395 -49.49461914 129.48010742 -50.25463867 129.15820312 C-51.69123333 128.55669692 -53.1318924 127.9647835 -54.5769043 127.38378906 C-56.2998831 126.66409093 -57.97574157 125.83372287 -59.64038086 124.98779297 C-59.97038086 123.99779297 -60.30038086 123.00779297 -60.64038086 121.98779297 C-60.11307373 121.75181396 -59.5857666 121.51583496 -59.04248047 121.27270508 C-45.92803702 115.40162732 -45.92803702 115.40162732 -32.89038086 109.36279297 C-25.20574776 105.75295982 -17.43308631 102.35678127 -9.64038086 98.98779297 C-12.91465891 96.80494093 -16.32175054 95.18991986 -19.87866211 93.53857422 C-20.59587936 93.20286911 -21.31309662 92.867164 -22.05204773 92.52128601 C-24.35125593 91.44531552 -26.6519158 90.37250071 -28.95288086 89.30029297 C-31.21448208 88.24575481 -33.47569669 87.19042033 -35.73588562 86.13285828 C-37.13886364 85.47644609 -38.54260048 84.82165151 -39.94734192 84.16902161 C-46.91881713 80.90840778 -53.74722723 77.43436978 -60.64038086 73.98779297 C-60.64038086 56.82779297 -60.64038086 39.66779297 -60.64038086 21.98779297 C-48.03730383 16.3164083 -35.43096361 10.66006715 -22.78881836 5.07763672 C-21.68022461 4.58650391 -20.57163086 4.09537109 -19.42944336 3.58935547 C-17.97078857 2.94474365 -17.97078857 2.94474365 -16.48266602 2.28710938 C-13.56267285 1.00150058 -13.56267285 1.00150058 -10.59106445 -0.73730469 C-6.33436458 -2.5764977 -4.18110006 -1.60285167 0 0 Z " fill="#0B5394" transform="translate(72.640380859375,17.01220703125)"/>
<path d="M0 0 C0 16.83 0 33.66 0 51 C-15.6350365 58.81751825 -15.6350365 58.81751825 -21.9375 61.5 C-27.32866198 63.81986948 -32.6821751 66.20384543 -38 68.6875 C-38.62559814 68.97818359 -39.25119629 69.26886719 -39.89575195 69.56835938 C-43.19905698 71.11449273 -46.42326583 72.75523475 -49.625 74.5 C-53.87279205 76.38790758 -55.94411402 75.78093755 -60.18139648 74.17138672 C-60.90399658 73.84412598 -61.62659668 73.51686523 -62.37109375 73.1796875 C-63.18545898 72.81278809 -63.99982422 72.44588867 -64.83886719 72.06787109 C-65.69641602 71.67422363 -66.55396484 71.28057617 -67.4375 70.875 C-68.32985352 70.46975098 -69.22220703 70.06450195 -70.14160156 69.64697266 C-76.35036601 66.80845692 -82.45200252 63.80901539 -88.52734375 60.6953125 C-91.13030923 59.42457345 -93.7147977 58.2448219 -96.37890625 57.1171875 C-97.11657227 56.80475098 -97.85423828 56.49231445 -98.61425781 56.17041016 C-100.05085247 55.56890395 -101.49151154 54.97699053 -102.93652344 54.39599609 C-104.65950224 53.67629797 -106.33536071 52.8459299 -108 52 C-108.495 50.515 -108.495 50.515 -109 49 C-108.47269287 48.764021 -107.94538574 48.52804199 -107.40209961 48.28491211 C-94.28780164 42.41351656 -94.28780164 42.41351656 -81.25 36.375 C-76.13207323 33.97440894 -70.99098431 31.64198128 -65.8125 29.375 C-65.20760742 29.10993652 -64.60271484 28.84487305 -63.97949219 28.57177734 C-61.13099814 27.33247778 -58.277329 26.11332367 -55.40161133 24.93823242 C-46.81765921 21.42513433 -38.44401158 17.52687508 -30.0625 13.5625 C-27.32463123 12.27125971 -24.58617396 10.9812696 -21.84765625 9.69140625 C-21.1879483 9.38063141 -20.52824036 9.06985657 -19.84854126 8.74966431 C-15.4228933 6.66618099 -10.99408022 4.58981166 -6.55859375 2.52734375 C-4.98356079 1.79439087 -4.98356079 1.79439087 -3.37670898 1.04663086 C-1 0 -1 0 0 0 Z " fill="#3C83C4" transform="translate(121,90)"/>
<path d="M0 0 C0.65258789 0.37616455 1.30517578 0.7523291 1.97753906 1.13989258 C3.40223094 1.75063842 4.83206624 2.3495148 6.26660156 2.93676758 C7.7140212 3.58311104 9.15928851 4.23429261 10.60253906 4.88989258 C11.37815186 5.23842285 12.15376465 5.58695312 12.95288086 5.94604492 C19.12976185 8.73104085 25.27458348 11.58322608 31.40722656 14.46411133 C36.91781065 17.05058898 42.44798559 19.59424654 47.97753906 22.13989258 C45.33411641 25.29663587 41.98173072 26.75498236 38.31738281 28.43286133 C37.65948257 28.74040848 37.00158234 29.04795563 36.32374573 29.36482239 C34.19075476 30.35951395 32.05335533 31.34420651 29.91503906 32.32739258 C28.4514166 33.00365002 26.98787506 33.68008265 25.52441406 34.35668945 C23.34916949 35.36138333 21.17335403 36.36475049 18.99581909 37.36447144 C15.02528525 39.18777367 11.07312874 41.04235569 7.13769531 42.94067383 C5.58451297 43.67417691 4.0311497 44.40729709 2.47753906 45.13989258 C1.81101318 45.47142334 1.1444873 45.8029541 0.45776367 46.14453125 C-4.82983942 48.58406859 -9.55067903 48.34265831 -14.94720459 46.4730835 C-16.91237063 45.63332722 -18.83021027 44.72911695 -20.74902344 43.78833008 C-21.81423721 43.28264999 -21.81423721 43.28264999 -22.90097046 42.76675415 C-25.15504477 41.6933869 -27.4011433 40.60438328 -29.64746094 39.51489258 C-31.13004856 38.80684428 -32.61311866 38.0998053 -34.09667969 37.39379883 C-43.12600861 33.08375127 -52.0896715 28.64631673 -61.02246094 24.13989258 C-57.01906944 21.04139568 -52.78452222 19.01148348 -48.20800781 16.91601562 C-47.02754883 16.37521362 -47.02754883 16.37521362 -45.82324219 15.82348633 C-44.94104004 15.41984863 -44.05883789 15.01621094 -43.14990234 14.6003418 C-40.0973461 13.17486237 -37.06896983 11.70714475 -34.0422821 10.22787476 C-31.11785386 8.80531813 -28.18139123 7.40872967 -25.24301147 6.01525879 C-23.76948361 5.30995488 -22.30079809 4.59443861 -20.83731079 3.86853027 C-6.50871493 -3.22121266 -6.50871493 -3.22121266 0 0 Z " fill="#3D85C5" transform="translate(73.0224609375,66.860107421875)"/>
<path d="M0 0 C0.66 0.33 1.32 0.66 2 1 C2 17.5 2 34 2 51 C-21.39921901 40.95210007 -21.39921901 40.95210007 -31.6328125 35.66015625 C-34.19596036 34.39642326 -36.73889974 33.2334125 -39.3671875 32.12109375 C-40.47622437 31.65159302 -40.47622437 31.65159302 -41.60766602 31.17260742 C-43.04675984 30.57042211 -44.48984987 29.97767469 -45.93725586 29.39575195 C-47.65997957 28.67610599 -49.33558848 27.84581416 -51 27 C-51.33 26.01 -51.66 25.02 -52 24 C-51.47269287 23.764021 -50.94538574 23.52804199 -50.40209961 23.28491211 C-37.28753835 17.41409157 -37.28753835 17.41409157 -24.25 11.375 C-18.22000807 8.53891588 -12.13803176 5.8439431 -6.01269531 3.22021484 C-2.77255717 1.98381489 -2.77255717 1.98381489 0 0 Z " fill="#0A5293" transform="translate(64,115)"/>
<path d="M0 0 C0 15.84 0 31.68 0 48 C-5.15756002 47.14040666 -8.932033 45.86861304 -13.53125 43.6484375 C-14.24422241 43.31131744 -14.95719482 42.97419739 -15.69177246 42.62686157 C-17.96456938 41.54987717 -20.23220786 40.46247645 -22.5 39.375 C-23.99187737 38.66731458 -25.48406258 37.96027776 -26.9765625 37.25390625 C-36.04311537 32.95140122 -45.04326843 28.52661634 -54 24 C-50.54048525 21.31457039 -46.96875205 19.43994305 -43 17.625 C-41.49468262 16.92992362 -39.98948357 16.23459093 -38.484375 15.5390625 C-37.63423828 15.14750977 -36.78410156 14.75595703 -35.90820312 14.35253906 C-33.16699776 13.07766685 -30.43563459 11.78338762 -27.70715332 10.48153687 C-25.18814222 9.28090316 -22.66533564 8.08837126 -20.14208984 6.89666748 C-18.88503643 6.30094581 -17.62948384 5.70204637 -16.37548828 5.09991455 C-14.59315874 4.24510335 -12.80448012 3.40356964 -11.015625 2.5625 C-9.97696289 2.06878906 -8.93830078 1.57507813 -7.86816406 1.06640625 C-5 0 -5 0 0 0 Z " fill="#9DC3E7" transform="translate(66,67)"/>
<path d="M0 0 C0 16.17 0 32.34 0 49 C-6.74979846 47.87503359 -6.74979846 47.87503359 -10.1184082 46.29760742 C-11.24536858 45.77652657 -11.24536858 45.77652657 -12.39509583 45.24491882 C-13.18897202 44.8689003 -13.98284821 44.49288177 -14.80078125 44.10546875 C-15.63659225 43.71684158 -16.47240326 43.32821442 -17.33354187 42.92781067 C-19.99645874 41.68789781 -22.65454336 40.43800531 -25.3125 39.1875 C-27.96076973 37.94999755 -30.60998854 36.71454514 -33.25932312 35.47932434 C-34.90308901 34.71201252 -36.5460591 33.9429926 -38.18806458 33.17192078 C-43.42947824 30.713383 -48.70106002 28.33193852 -54 26 C-54 25.34 -54 24.68 -54 24 C-44.96757549 19.92150501 -35.93141193 15.85217866 -26.87109375 11.8359375 C-25.6694458 11.30323242 -24.46779785 10.77052734 -23.22973633 10.22167969 C-20.85903299 9.17160181 -18.48779115 8.12273869 -16.1159668 7.07519531 C-15.01808838 6.58889648 -13.92020996 6.10259766 -12.7890625 5.6015625 C-11.33040771 4.95695068 -11.33040771 4.95695068 -9.84228516 4.29931641 C-7.77519158 3.35436949 -5.73037922 2.36021034 -3.70068359 1.33740234 C-1 0 -1 0 0 0 Z " fill="#3C84C5" transform="translate(66,15)"/>
<path d="M0 0 C0 16.5 0 33 0 50 C-5.12452294 48.53585059 -9.16347282 47.13023741 -13.87890625 44.87109375 C-15.19933714 44.24323351 -16.51981419 43.61547032 -17.84033203 42.98779297 C-18.52154114 42.66172058 -19.20275024 42.33564819 -19.90460205 41.99969482 C-23.4152767 40.32478468 -26.94102973 38.68218978 -30.46484375 37.03515625 C-31.87444936 36.37456316 -33.28395465 35.71375596 -34.69335938 35.05273438 C-35.38969482 34.72619873 -36.08603027 34.39966309 -36.8034668 34.06323242 C-37.50769775 33.73299072 -38.21192871 33.40274902 -38.9375 33.0625 C-40.41080155 32.37173255 -41.88410882 31.68097729 -43.35742188 30.99023438 C-46.90501342 29.32696258 -50.45252894 27.66352875 -54 26 C-51.32417418 22.75707529 -47.84250182 21.36096087 -44.0859375 19.70703125 C-43.40274445 19.39952942 -42.71955139 19.09202759 -42.01565552 18.77520752 C-39.80480709 17.7814798 -37.5899654 16.79701208 -35.375 15.8125 C-33.11560997 14.79965633 -30.85728825 13.78445873 -28.59906006 12.76902771 C-27.11588092 12.10222173 -25.63236221 11.43617055 -24.14849854 10.77088928 C-17.87902546 7.95725371 -11.65447208 5.05527535 -5.45849609 2.08325195 C-1.09578236 0 -1.09578236 0 0 0 Z " fill="#073864" transform="translate(121,90)"/>
<path d="M0 0 C5.75223601 1.917412 11.04638103 3.78211085 16.45703125 6.36328125 C17.46064949 6.83497993 17.46064949 6.83497993 18.48454285 7.31620789 C19.8880199 7.97693038 21.29038281 8.64002439 22.69165039 9.30541992 C24.79534946 10.30435611 26.9021855 11.2963918 29.00976562 12.28710938 C37.06305444 16.08200319 45.05906394 19.97436693 53 24 C51.55157282 26.89685435 49.60171323 27.28071646 46.671875 28.609375 C45.56070313 29.11726563 44.44953125 29.62515625 43.3046875 30.1484375 C42.13164063 30.67695312 40.95859375 31.20546875 39.75 31.75 C38.62335937 32.26304688 37.49671875 32.77609375 36.3359375 33.3046875 C34.04828096 34.34643499 31.75961319 35.38596452 29.4699707 36.42333984 C21.00453544 40.26980301 12.57393216 44.19251768 4.14453125 48.1171875 C2 49 2 49 0 49 C0 32.83 0 16.66 0 0 Z " fill="#073764" transform="translate(12,41)"/>
</svg>
