<svg width="1088" height="357" viewBox="0 0 1088 357" fill="none" xmlns="http://www.w3.org/2000/svg">
<g clip-path="url(#clip0_6398_31466)">
<path d="M69.8607 57.9892H229.065L121.74 147.235C119.634 148.925 118.363 151.448 118.237 154.158C118.112 156.869 119.155 159.496 121.114 161.373L150.265 189.482C152.08 191.233 154.436 192.109 156.813 192.109C158.898 192.109 161.005 191.42 162.735 190.024L384.996 0.917474L386.08 0H79.0564C74.6566 0 70.8824 2.98182 69.8815 7.27732L60.7067 46.4163C60.0395 49.2313 60.7067 52.1507 62.4999 54.4235C64.2933 56.6964 66.9831 57.9892 69.8815 57.9892" fill="#F4991A"/>
<path d="M437.94 93.9373C405.869 93.9373 382.244 99.3379 358.911 111.974C331.511 126.842 313.766 150.737 306.134 183.059L303.299 195.841C296.73 223.073 299.545 244.843 311.681 260.564C327.841 281.5 353.218 290.446 396.548 290.446C473.117 290.446 515.467 262.129 529.813 201.325L532.649 188.584C539.051 162.019 536.131 140.541 523.933 124.735C507.501 103.446 480.978 93.9579 437.94 93.9579M473.513 185.894L471.365 194.673C463.859 223.803 441.631 237.982 403.367 237.982C380.472 237.982 372.006 233.019 365.729 225.012C360.849 218.778 359.787 210.103 362.434 198.509L364.603 189.439C372.339 159.329 392.565 146.484 432.205 146.484C455.809 146.484 464.108 151.218 470.468 159.412C475.285 165.606 476.265 174.279 473.513 185.894Z" fill="#EE7417"/>
<path d="M708.818 93.9373C676.747 93.9373 653.122 99.3379 629.809 111.974C602.41 126.842 584.665 150.737 577.034 183.059L574.197 195.841C567.629 223.073 570.444 244.843 582.58 260.564C598.74 281.5 624.117 290.446 667.447 290.446C744.036 290.446 786.366 262.129 800.711 201.325L803.548 188.584C809.949 162.019 807.03 140.541 794.831 124.735C778.4 103.446 751.876 93.9579 708.838 93.9579M744.433 185.894L742.264 194.673C734.757 223.803 712.529 237.982 674.266 237.982C651.37 237.982 642.904 233.019 636.648 225.012C631.769 218.778 630.685 210.103 633.354 198.509L635.523 189.439C643.259 159.329 663.465 146.484 703.125 146.484C726.729 146.484 735.028 151.218 741.388 159.412C746.204 165.606 747.185 174.279 744.453 185.894" fill="#EE7417"/>
<path d="M258.625 226.617H18.8693C14.5113 226.617 10.7371 229.578 9.71537 233.811L0.269414 273.367C-0.418699 276.182 0.227703 279.122 2.02097 281.416C3.81424 283.71 6.52499 285.002 9.42339 285.002H249.2C253.557 285.002 257.332 282.041 258.354 277.808L267.8 238.252C268.487 235.417 267.841 232.497 266.048 230.204C264.255 227.91 261.544 226.596 258.646 226.596" fill="#EE7417"/>
<path d="M1075.43 122.275C1060.94 103.738 1038.61 93.9167 1001.7 93.9167C964.795 93.9167 943.157 100.714 920.258 117.292L920.111 107.658C920.32 103.404 916.942 99.8388 912.667 99.7966H911.791H877.031C872.84 99.7966 869.232 102.654 868.274 106.72L812.14 343.347C811.577 345.683 811.848 348.206 813.078 350.27C814.746 353.064 817.666 354.691 820.835 354.691H862.393C866.585 354.691 870.192 351.834 871.172 347.768L889.73 268.927C906.641 283.607 925.033 290.404 957.751 290.404C1030 290.404 1068.75 259.773 1082.44 199.385L1084.78 188.439C1091.18 160.643 1088.03 138.373 1075.46 122.254M1025.72 184.748L1023.52 193.923C1014.23 232.186 975.657 237.899 950.614 237.899C908.142 237.899 905.619 222.677 903.68 210.396L910.019 181.974C922.176 158.037 946.093 146.401 983.151 146.401C1006.17 146.401 1016.38 150.822 1023.06 159.537C1027.6 165.502 1028.48 173.759 1025.72 184.748Z" fill="#EE7417"/>
</g>
<defs>
<clipPath id="clip0_6398_31466">
<rect width="1088" height="356.414" fill="white"/>
</clipPath>
</defs>
</svg>
